<?xml version="1.0" standalone="no"?>
<!DOCTYPE svg PUBLIC "-//W3C//DTD SVG 20010904//EN"
 "http://www.w3.org/TR/2001/REC-SVG-20010904/DTD/svg10.dtd">
<svg version="1.0" xmlns="http://www.w3.org/2000/svg"
 width="268.000000pt" height="214.000000pt" viewBox="0 0 268.000000 214.000000"
 preserveAspectRatio="xMidYMid meet">

<g transform="translate(0.000000,214.000000) scale(0.100000,-0.100000)"
fill="#000000" stroke="none">
<path d="M1740 1605 l0 -66 83 3 82 3 3 63 3 62 -86 0 -85 0 0 -65z"/>
<path d="M1072 1318 l3 -343 80 0 80 0 3 198 2 197 94 0 c89 0 94 -1 100 -22
3 -13 6 -103 6 -200 l0 -178 80 0 80 0 0 210 c0 236 -6 265 -62 300 -30 19
-45 21 -148 17 -63 -2 -122 -6 -130 -8 -12 -3 -16 12 -18 84 l-3 87 -85 0 -84
0 2 -342z"/>
<path d="M528 1633 c-19 -23 -268 -390 -268 -396 0 -2 40 -5 89 -6 79 -2 91 1
100 17 5 10 44 68 87 128 107 152 103 140 53 212 -23 34 -43 62 -44 62 -1 0
-9 -8 -17 -17z"/>
<path d="M2196 1475 c-61 -25 -76 -25 -76 1 0 11 -16 14 -75 14 l-75 0 0 -340
0 -340 85 0 85 0 0 79 0 79 129 4 c117 3 132 6 165 28 56 39 66 77 66 246 0
165 -10 200 -65 234 -48 30 -161 28 -239 -5z m122 -117 c8 -8 12 -50 12 -123
0 -73 -4 -115 -12 -123 -7 -7 -44 -12 -95 -12 l-83 0 0 124 0 124 53 10 c75
14 111 14 125 0z"/>
<path d="M1670 1410 l0 -60 35 0 35 0 0 -190 0 -191 83 3 82 3 3 248 2 247
-120 0 -120 0 0 -60z"/>
<path d="M590 1313 c-47 -69 -94 -135 -106 -147 -18 -18 -55 -70 -88 -123 -5
-10 15 -13 91 -13 l98 1 93 138 c50 77 92 142 92 146 0 10 -82 125 -89 125 -3
0 -44 -57 -91 -127z"/>
<path d="M730 1105 c-51 -74 -97 -139 -104 -143 -6 -4 -30 -35 -53 -70 -30
-45 -39 -64 -29 -68 7 -3 50 -4 96 -2 l83 3 129 190 c71 105 134 198 139 208
9 16 2 17 -80 17 l-89 0 -92 -135z"/>
<path d="M821 659 c-24 -29 -30 -44 -22 -52 8 -8 16 -6 29 6 18 16 20 16 32 1
11 -12 11 -20 2 -35 -15 -24 -15 -29 2 -29 18 0 87 80 80 91 -8 14 -26 11 -38
-6 -10 -14 -14 -14 -31 -1 -16 12 -18 17 -7 27 6 7 12 19 12 26 0 25 -25 13
-59 -28z"/>
<path d="M1850 675 l-24 -26 42 -42 42 -42 27 27 c15 15 24 31 20 35 -4 3 -13
1 -19 -5 -21 -21 -30 -13 -23 21 7 31 7 32 -12 14 -26 -23 -36 -11 -16 19 13
20 13 24 1 24 -8 0 -25 -11 -38 -25z"/>
<path d="M1171 477 c-16 -67 -14 -74 20 -81 43 -8 58 4 25 21 -30 16 -27 34 4
26 23 -6 27 12 5 21 -22 8 -18 28 4 21 11 -3 22 -1 26 5 10 15 3 20 -37 26
-35 6 -35 5 -47 -39z"/>
<path d="M1523 512 c-10 -6 -9 -20 2 -61 7 -29 16 -55 19 -58 9 -10 26 9 26
29 0 20 1 20 18 5 20 -18 42 -22 42 -8 0 5 -7 14 -15 21 -11 9 -12 16 -3 30 9
14 9 22 -1 34 -14 17 -67 21 -88 8z m61 -21 c3 -5 -1 -14 -8 -20 -16 -13 -32
2 -21 19 8 12 22 13 29 1z"/>
</g>
</svg>
