<svg xmlns="http://www.w3.org/2000/svg" xmlns:xlink="http://www.w3.org/1999/xlink" version="1.1" width="1000" height="1000" viewBox="0 0 1000 1000" xml:space="preserve">
<desc>Created with Fabric.js 3.5.0</desc>
<defs>
</defs>
<rect x="0" y="0" width="100%" height="100%" fill="#ffffff"/>
<g transform="matrix(3.1724 0 0 3.1724 477.8966 383.0313)" id="459046">
<g style="" vector-effect="non-scaling-stroke">
		<g transform="matrix(0.1333 0 0 -0.1333 64.7305 -71.2689)">
<path style="stroke: none; stroke-width: 1; stroke-dasharray: none; stroke-linecap: butt; stroke-dashoffset: 0; stroke-linejoin: miter; stroke-miterlimit: 4; is-custom-font: none; font-file-url: none; fill: rgb(0,0,0); fill-rule: nonzero; opacity: 1;" transform=" translate(-1825.5, -1604.5)" d="M 1740 1605 l 0 -66 l 83 3 l 82 3 l 3 63 l 3 62 l -86 0 l -85 0 l 0 -65 z" stroke-linecap="round"/>
</g>
		<g transform="matrix(0.1333 0 0 -0.1333 -0.6755 -32.6782)">
<path style="stroke: none; stroke-width: 1; stroke-dasharray: none; stroke-linecap: butt; stroke-dashoffset: 0; stroke-linejoin: miter; stroke-miterlimit: 4; is-custom-font: none; font-file-url: none; fill: rgb(0,0,0); fill-rule: nonzero; opacity: 1;" transform=" translate(-1335, -1315)" d="M 1072 1318 l 3 -343 l 80 0 l 80 0 l 3 198 l 2 197 l 94 0 c 89 0 94 -1 100 -22 c 3 -13 6 -103 6 -200 l 0 -178 l 80 0 l 80 0 l 0 210 c 0 236 -6 265 -62 300 c -30 19 -45 21 -148 17 c -63 -2 -122 -6 -130 -8 c -12 -3 -16 12 -18 84 l -3 87 l -85 0 l -84 0 l 2 -342 z" stroke-linecap="round"/>
</g>
		<g transform="matrix(0.1333 0 0 -0.1333 -119.8167 -49.3705)">
<path style="stroke: none; stroke-width: 1; stroke-dasharray: none; stroke-linecap: butt; stroke-dashoffset: 0; stroke-linejoin: miter; stroke-miterlimit: 4; is-custom-font: none; font-file-url: none; fill: rgb(0,0,0); fill-rule: nonzero; opacity: 1;" transform=" translate(-441.4206, -1440.2261)" d="M 528 1633 c -19 -23 -268 -390 -268 -396 c 0 -2 40 -5 89 -6 c 79 -2 91 1 100 17 c 5 10 44 68 87 128 c 107 152 103 140 53 212 c -23 34 -43 62 -44 62 c -1 0 -9 -8 -17 -17 z" stroke-linecap="round"/>
</g>
		<g transform="matrix(0.1333 0 0 -0.1333 119.3245 -11.4247)">
<path style="stroke: none; stroke-width: 1; stroke-dasharray: none; stroke-linecap: butt; stroke-dashoffset: 0; stroke-linejoin: miter; stroke-miterlimit: 4; is-custom-font: none; font-file-url: none; fill: rgb(0,0,0); fill-rule: nonzero; opacity: 1;" transform=" translate(-2235, -1155.5989)" d="M 2196 1475 c -61 -25 -76 -25 -76 1 c 0 11 -16 14 -75 14 l -75 0 l 0 -340 l 0 -340 l 85 0 l 85 0 l 0 79 l 0 79 l 129 4 c 117 3 132 6 165 28 c 56 39 66 77 66 246 c 0 165 -10 200 -65 234 c -48 30 -161 28 -239 -5 z m 122 -117 c 8 -8 12 -50 12 -123 c 0 -73 -4 -115 -12 -123 c -7 -7 -44 -12 -95 -12 l -83 0 l 0 124 l 0 124 l 53 10 c 75 14 111 14 125 0 z" stroke-linecap="round"/>
</g>
		<g transform="matrix(0.1333 0 0 -0.1333 59.996 -19.9417)">
<path style="stroke: none; stroke-width: 1; stroke-dasharray: none; stroke-linecap: butt; stroke-dashoffset: 0; stroke-linejoin: miter; stroke-miterlimit: 4; is-custom-font: none; font-file-url: none; fill: rgb(0,0,0); fill-rule: nonzero; opacity: 1;" transform=" translate(-1790, -1219.5)" d="M 1670 1410 l 0 -60 l 35 0 l 35 0 l 0 -190 l 0 -191 l 83 3 l 82 3 l 3 248 l 2 247 l -120 0 l -120 0 l 0 -60 z" stroke-linecap="round"/>
</g>
		<g transform="matrix(0.1333 0 0 -0.1333 -100.9877 -22.0068)">
<path style="stroke: none; stroke-width: 1; stroke-dasharray: none; stroke-linecap: butt; stroke-dashoffset: 0; stroke-linejoin: miter; stroke-miterlimit: 4; is-custom-font: none; font-file-url: none; fill: rgb(0,0,0); fill-rule: nonzero; opacity: 1;" transform=" translate(-582.6392, -1235)" d="M 590 1313 c -47 -69 -94 -135 -106 -147 c -18 -18 -55 -70 -88 -123 c -5 -10 15 -13 91 -13 l 98 1 l 93 138 c 50 77 92 142 92 146 c 0 10 -82 125 -89 125 c -3 0 -44 -57 -91 -127 z" stroke-linecap="round"/>
</g>
		<g transform="matrix(0.1333 0 0 -0.1333 -76.4011 5.2624)">
<path style="stroke: none; stroke-width: 1; stroke-dasharray: none; stroke-linecap: butt; stroke-dashoffset: 0; stroke-linejoin: miter; stroke-miterlimit: 4; is-custom-font: none; font-file-url: none; fill: rgb(0,0,0); fill-rule: nonzero; opacity: 1;" transform=" translate(-767.0489, -1030.4797)" d="M 730 1105 c -51 -74 -97 -139 -104 -143 c -6 -4 -30 -35 -53 -70 c -30 -45 -39 -64 -29 -68 c 7 -3 50 -4 96 -2 l 83 3 l 129 190 c 71 105 134 198 139 208 c 9 16 2 17 -80 17 l -89 0 l -92 -135 z" stroke-linecap="round"/>
</g>
		<g transform="matrix(0.1333 0 0 -0.1333 -62.6587 59.3311)">
<path style="stroke: none; stroke-width: 1; stroke-dasharray: none; stroke-linecap: butt; stroke-dashoffset: 0; stroke-linejoin: miter; stroke-miterlimit: 4; is-custom-font: none; font-file-url: none; fill: rgb(0,0,0); fill-rule: nonzero; opacity: 1;" transform=" translate(-870.0781, -624.9978)" d="M 821 659 c -24 -29 -30 -44 -22 -52 c 8 -8 16 -6 29 6 c 18 16 20 16 32 1 c 11 -12 11 -20 2 -35 c -15 -24 -15 -29 2 -29 c 18 0 87 80 80 91 c -8 14 -26 11 -38 -6 c -10 -14 -14 -14 -31 -1 c -16 12 -18 17 -7 27 c 6 7 12 19 12 26 c 0 25 -25 13 -59 -28 z" stroke-linecap="round"/>
</g>
		<g transform="matrix(0.1333 0 0 -0.1333 73.5944 58.3311)">
<path style="stroke: none; stroke-width: 1; stroke-dasharray: none; stroke-linecap: butt; stroke-dashoffset: 0; stroke-linejoin: miter; stroke-miterlimit: 4; is-custom-font: none; font-file-url: none; fill: rgb(0,0,0); fill-rule: nonzero; opacity: 1;" transform=" translate(-1891.9751, -632.5)" d="M 1850 675 l -24 -26 l 42 -42 l 42 -42 l 27 27 c 15 15 24 31 20 35 c -4 3 -13 1 -19 -5 c -21 -21 -30 -13 -23 21 c 7 31 7 32 -12 14 c -26 -23 -36 -11 -16 19 c 13 20 13 24 1 24 c -8 0 -25 -11 -38 -25 z" stroke-linecap="round"/>
</g>
		<g transform="matrix(0.1333 0 0 -0.1333 -17.3087 81.8584)">
<path style="stroke: none; stroke-width: 1; stroke-dasharray: none; stroke-linecap: butt; stroke-dashoffset: 0; stroke-linejoin: miter; stroke-miterlimit: 4; is-custom-font: none; font-file-url: none; fill: rgb(0,0,0); fill-rule: nonzero; opacity: 1;" transform=" translate(-1210.1972, -456.046)" d="M 1171 477 c -16 -67 -14 -74 20 -81 c 43 -8 58 4 25 21 c -30 16 -27 34 4 26 c 23 -6 27 12 5 21 c -22 8 -18 28 4 21 c 11 -3 22 -1 26 5 c 10 15 3 20 -37 26 c -35 6 -35 5 -47 -39 z" stroke-linecap="round"/>
</g>
		<g transform="matrix(0.1333 0 0 -0.1333 31.0704 82.0015)">
<path style="stroke: none; stroke-width: 1; stroke-dasharray: none; stroke-linecap: butt; stroke-dashoffset: 0; stroke-linejoin: miter; stroke-miterlimit: 4; is-custom-font: none; font-file-url: none; fill: rgb(0,0,0); fill-rule: nonzero; opacity: 1;" transform=" translate(-1573.0424, -454.9724)" d="M 1523 512 c -10 -6 -9 -20 2 -61 c 7 -29 16 -55 19 -58 c 9 -10 26 9 26 29 c 0 20 1 20 18 5 c 20 -18 42 -22 42 -8 c 0 5 -7 14 -15 21 c -11 9 -12 16 -3 30 c 9 14 9 22 -1 34 c -14 17 -67 21 -88 8 z m 61 -21 c 3 -5 -1 -14 -8 -20 c -16 -13 -32 2 -21 19 c 8 12 22 13 29 1 z" stroke-linecap="round"/>
</g>
</g>
</g>
<g transform="matrix(4.2466 -4.0844 2.2809 2.3715 100.5111 337.9883)" id="598329">
<path style="stroke: none; stroke-width: 1; stroke-dasharray: none; stroke-linecap: butt; stroke-dashoffset: 0; stroke-linejoin: miter; stroke-miterlimit: 4; is-custom-font: none; font-file-url: none; fill: rgb(0,0,0); fill-rule: evenodd; opacity: 1;" vector-effect="non-scaling-stroke" transform=" translate(-9.7162, -26.9714)" d="M 5.84726 35.0285 L 6.10456 35.5428 C 6.19032 35.8 6.36186 35.9714 6.36186 35.8857 C 6.36186 35.8 6.44762 35.3714 6.36186 34.9428 C 6.27609 33.4857 6.19032 31.3428 6.10456 29.2 C 6.01879 26.7143 6.01879 16.6 6.10456 14.9714 C 6.10456 14.3714 6.19033 13.2571 6.19033 12.6571 C 6.19033 11.9714 6.27609 11.1143 6.36186 10.7714 C 6.44762 9.91426 6.53339 9.48569 6.61915 8.28569 C 6.70492 6.82855 6.87645 6.22855 7.04798 6.31426 C 7.13375 6.31426 7.13375 6.31427 7.13375 6.22855 C 7.13375 6.14284 7.04798 6.14284 7.04798 6.14284 C 6.87645 6.14284 6.96222 5.19998 7.30528 3.65713 C 7.56258 2.2857 7.81987 1.59998 8.07717 1.25712 C 8.42024 0.914267 8.506 0.914264 8.506 1.42855 C 8.506 1.77141 8.506 1.7714 8.59177 1.59998 C 8.7633 1.25712 8.7633 1.59998 8.506 2.54284 C 8.42024 3.05712 8.2487 4.08569 8.2487 4.85712 C 8.07717 6.48569 7.99141 6.74284 7.90564 6.22855 C 7.81988 5.97141 7.81988 6.22855 7.73411 7.0857 C 7.64834 7.77141 7.64834 8.3714 7.56258 8.45712 C 7.47681 8.71426 7.56258 9.99997 7.64834 9.91426 C 7.73411 9.82854 7.73411 10.2571 7.73411 11.0285 C 7.73411 11.7143 7.73411 12.2286 7.81988 12.2286 C 8.16294 12.2286 8.16294 12.2285 8.07717 12.1428 C 7.99141 12.0571 7.90564 11.8 7.99141 10.8571 C 7.99141 10.1714 8.07717 9.65712 8.16294 9.57141 C 8.2487 9.48569 8.2487 9.31426 8.16294 9.14284 C 8.07717 9.05712 8.16294 8.9714 8.2487 8.88569 C 8.33447 8.79998 8.42024 8.71426 8.33447 8.71426 C 8.2487 8.71426 8.2487 8.54284 8.2487 8.28569 C 8.2487 7.94284 8.33447 7.85712 8.42024 8.02855 C 8.506 8.11426 8.59177 8.19998 8.59177 8.11427 C 8.59177 8.02855 8.506 7.94284 8.42024 7.85712 C 8.33447 7.77141 8.2487 7.68569 8.33447 7.59998 C 8.33447 7.59998 8.42024 7.08569 8.42024 6.57141 C 8.506 5.19998 8.7633 2.97141 9.0206 2.54284 C 9.10636 2.37141 9.19213 2.02855 9.27789 1.6857 C 9.36366 1.0857 9.53519 0.828552 9.70672 0.828552 C 9.87825 0.828552 9.96402 0.914261 9.96402 1.59998 C 9.96402 2.02855 10.0498 2.9714 10.0498 3.74283 C 10.0498 4.51426 10.0498 5.11427 10.1356 5.11427 C 10.1356 5.11427 10.2213 4.59998 10.2213 3.99998 C 10.2213 3.31426 10.3071 2.37141 10.3071 1.85712 L 10.3929 0.914259 H 10.7359 C 11.1647 0.914259 11.3363 1.1714 11.422 1.59998 V 1.94284 L 11.5078 1.59998 C 11.5936 1.08569 11.7651 0.999978 11.8509 1.42855 C 12.1082 2.02855 12.1939 3.65713 12.3655 7.94284 C 12.4512 10.2571 12.4512 11.0286 12.537 11.9714 C 12.6228 12.9143 12.7085 14.5428 12.7943 16.4285 C 12.7943 17.2 12.8801 18.1428 12.8801 18.5714 C 12.9658 19.6 12.9658 20.3714 13.3947 27.9143 C 13.5662 31.4285 13.7377 34.3428 13.8235 34.4286 C 13.995 34.8571 14.0808 33.9143 13.995 32.5428 C 13.9092 30.1428 13.9092 30.0571 13.8235 29.9714 C 13.7377 29.7143 13.652 28.5143 13.5662 25 C 13.5662 24.3143 13.4804 23.1143 13.4804 22.3428 C 13.4804 21.5714 13.3947 20.3714 13.3947 19.6 C 13.3947 18.8285 13.3089 18.2285 13.3089 18.1428 C 13.3089 18.0571 13.2231 17.7143 13.2231 17.2857 C 13.1374 16.6 13.2231 16.5143 13.3947 16.4285 C 13.5662 16.3428 13.652 16.3428 13.652 16.5143 C 13.652 16.6 13.7377 17.5428 13.7377 18.5714 C 13.8235 19.6 13.9093 20.8 13.9093 21.2286 C 13.9093 21.6571 13.995 22.3428 13.995 22.8571 C 13.995 23.3714 14.1665 24.7428 14.2523 25.9428 C 14.3381 27.1428 14.5096 29.1143 14.5096 30.3143 C 14.5954 31.5143 14.6811 32.6285 14.6811 32.8857 L 14.7669 33.3143 L 15.1957 33.0571 C 15.7103 32.7143 15.7961 32.7143 15.7961 33.0571 C 15.7961 33.3143 15.7961 33.3143 16.1392 32.9714 C 16.4822 32.6286 16.9111 32.5428 16.9968 32.7143 C 16.9968 32.8 17.1684 32.8 17.3399 32.6285 C 17.6829 32.4571 18.1975 32.4571 18.1975 32.7143 C 18.1975 32.8 18.2833 32.8857 18.3691 32.8 C 18.8837 32.5428 18.8837 32.5428 18.8837 32.8857 C 18.8837 33.0571 18.9694 33.1428 19.0552 33.1428 C 19.141 33.1428 19.2267 33.2285 19.141 33.3143 C 19.0552 33.4 19.0552 33.6571 19.0552 33.7428 C 19.0552 33.9143 18.9694 34.1714 18.8837 34.3428 C 18.6264 34.9428 18.026 37.6857 17.8545 39.4 C 17.7687 40.0857 17.5972 41.2857 17.5114 42.0571 C 17.3399 43.3428 16.7395 46.5143 16.3965 47.6285 C 15.7103 50.1143 15.2815 51.3143 14.9384 51.3143 C 14.8527 51.3143 14.7669 51.4 14.6811 51.4857 C 14.5096 51.7428 13.995 51.8285 13.7377 51.7428 C 13.4804 51.6571 12.9658 52 13.0516 52.2571 C 13.0516 52.3428 13.0516 52.4286 12.9658 52.4286 C 12.8801 52.4286 12.7085 52.5143 12.537 52.6 C 12.3655 52.6857 12.2797 52.6857 12.1939 52.6 C 12.1082 52.5143 12.1082 52.5143 12.1082 52.5143 C 12.1082 52.6857 11.2505 53.0286 10.7359 53.1143 C 10.3928 53.1143 10.2213 53.1143 9.96402 52.9428 C 9.79249 52.7714 9.53519 52.7714 9.36366 52.7714 C 8.59177 52.9428 7.56258 51.9143 6.19033 49.3428 C 5.93303 48.9143 5.58996 48.2286 5.33267 47.8 C 4.81807 46.9428 4.81807 46.7714 4.9896 46.8571 C 5.07537 46.8571 4.9896 46.7714 4.81807 46.6857 C 4.64654 46.5143 4.56077 46.3428 4.56077 46.2571 C 4.56077 46.1714 4.56077 46.1714 4.56077 46.1714 C 4.56077 46.1714 4.38924 46 4.30348 45.8286 C 4.21771 45.6571 4.13195 45.4857 4.04618 45.4857 C 3.96041 45.4857 3.96041 45.4 3.96041 45.3143 C 3.96041 45.2285 3.87465 45.0571 3.87465 44.9714 C 3.78888 44.8857 2.93122 43.1714 2.50239 42.2286 C 2.41663 41.9714 2.07356 41.2857 1.7305 40.6 C 1.04437 39.1428 0.358248 37.3428 0.272482 36.7428 C 0.186716 35.9714 0.444013 35.0286 0.787077 35.1143 C 0.872842 35.1143 0.958609 35.1143 0.872843 35.0285 C 0.872843 34.8571 0.872842 34.7714 1.21591 34.8571 C 1.38744 34.9428 1.55897 35.2 1.7305 35.6285 C 1.90203 36.0571 2.07356 36.3143 2.07356 36.3143 C 2.07356 36.3143 2.15933 35.8857 2.07356 35.4571 C 2.07356 34.6 2.15933 34.3428 2.58816 34.3428 C 2.84546 34.3428 2.93122 34.4285 3.18852 34.7714 L 3.53158 35.2 V 34.1714 L 4.13194 34.2571 C 4.56077 34.3428 4.73231 34.4286 4.90384 34.5143 C 5.07537 34.6857 5.07537 34.6857 5.16113 34.5143 C 5.33267 34.2571 5.5042 34.4286 5.7615 34.9428 L 5.93303 35.3714 L 5.84726 35.0285 Z M 12.8801 16.1714 C 12.8801 15.9143 12.8801 15.4857 12.7943 15.4 C 12.7943 15.2286 12.7085 14.3714 12.7085 13.4285 C 12.6228 11.9714 12.7085 11.8 12.7943 11.8 C 12.8801 11.8 12.9658 11.9714 12.9658 12.2286 C 13.0516 13.6 13.1374 15.4 13.2231 16 C 13.3089 16.3428 13.2231 16.5143 13.0516 16.6 C 12.9658 16.6857 12.9658 16.6 12.8801 16.1714 Z M 12.7085 11.2 C 12.7085 11.0285 12.6228 10.5143 12.6228 9.99998 C 12.537 9.48569 12.537 8.97141 12.6228 8.79998 C 12.7085 8.62855 12.7085 8.45712 12.6228 8.45712 C 12.537 8.45712 12.537 8.19998 12.537 7.85712 C 12.537 7.51426 12.4512 6.99998 12.4512 6.57141 C 12.4512 6.14284 12.4512 5.79998 12.537 5.71426 C 12.6228 5.62855 12.6228 5.54283 12.537 5.62854 C 12.4512 5.71426 12.3655 5.54283 12.3655 5.19997 C 12.3655 4.94283 12.3655 4.6857 12.4512 4.6857 C 12.537 4.59998 12.537 4.34283 12.4512 4.34283 C 12.3655 4.34283 12.3655 4.25712 12.3655 4.1714 C 12.3655 4.08569 12.3655 3.57141 12.2797 2.97141 C 12.1939 1.42855 12.3655 2.19998 12.6228 4.1714 C 12.7085 5.11426 12.7943 6.5714 12.8801 7.34283 C 12.8801 8.11426 12.9658 8.79998 12.9658 8.79998 C 12.9658 8.8857 13.0516 9.22855 13.0516 9.65713 C 13.0516 10.0857 13.0516 10.6 13.1374 10.9428 C 13.2231 11.3714 13.1374 11.4571 13.0516 11.4571 C 12.7943 11.5428 12.7085 11.4571 12.7085 11.2 Z M 7.81988 9.39998 C 7.81988 9.22855 7.90564 8.8857 7.90564 8.54284 L 7.99141 8.02855 V 8.71426 C 7.99141 9.05712 7.99141 9.48569 7.90564 9.57141 C 7.81988 9.65712 7.81988 9.65712 7.81988 9.39998 Z M 7.90564 7.85712 C 7.90564 7.68569 7.99141 7.51426 7.99141 7.42855 C 8.07717 7.34284 8.07717 7.34283 8.07717 7.59998 C 8.07717 8.02855 7.90564 8.19998 7.90564 7.85712 Z M 7.99141 6.91426 C 7.99141 6.82854 8.07717 6.65713 8.07717 6.65713 C 8.07717 6.65713 8.07717 6.74283 8.07717 6.91426 C 8.07717 6.99997 7.99141 7.1714 7.99141 7.1714 C 7.99141 7.1714 7.99141 7.08569 7.99141 6.91426 Z" stroke-linecap="round"/>
</g>
<g transform="matrix(3.6842 -3.2137 2.1101 2.419 247.0042 302.9575)" id="564321">
<path style="stroke: none; stroke-width: 1; stroke-dasharray: none; stroke-linecap: butt; stroke-dashoffset: 0; stroke-linejoin: miter; stroke-miterlimit: 4; is-custom-font: none; font-file-url: none; fill: rgb(0,0,0); fill-rule: evenodd; opacity: 1;" vector-effect="non-scaling-stroke" transform=" translate(-9.7162, -26.9714)" d="M 5.84726 35.0285 L 6.10456 35.5428 C 6.19032 35.8 6.36186 35.9714 6.36186 35.8857 C 6.36186 35.8 6.44762 35.3714 6.36186 34.9428 C 6.27609 33.4857 6.19032 31.3428 6.10456 29.2 C 6.01879 26.7143 6.01879 16.6 6.10456 14.9714 C 6.10456 14.3714 6.19033 13.2571 6.19033 12.6571 C 6.19033 11.9714 6.27609 11.1143 6.36186 10.7714 C 6.44762 9.91426 6.53339 9.48569 6.61915 8.28569 C 6.70492 6.82855 6.87645 6.22855 7.04798 6.31426 C 7.13375 6.31426 7.13375 6.31427 7.13375 6.22855 C 7.13375 6.14284 7.04798 6.14284 7.04798 6.14284 C 6.87645 6.14284 6.96222 5.19998 7.30528 3.65713 C 7.56258 2.2857 7.81987 1.59998 8.07717 1.25712 C 8.42024 0.914267 8.506 0.914264 8.506 1.42855 C 8.506 1.77141 8.506 1.7714 8.59177 1.59998 C 8.7633 1.25712 8.7633 1.59998 8.506 2.54284 C 8.42024 3.05712 8.2487 4.08569 8.2487 4.85712 C 8.07717 6.48569 7.99141 6.74284 7.90564 6.22855 C 7.81988 5.97141 7.81988 6.22855 7.73411 7.0857 C 7.64834 7.77141 7.64834 8.3714 7.56258 8.45712 C 7.47681 8.71426 7.56258 9.99997 7.64834 9.91426 C 7.73411 9.82854 7.73411 10.2571 7.73411 11.0285 C 7.73411 11.7143 7.73411 12.2286 7.81988 12.2286 C 8.16294 12.2286 8.16294 12.2285 8.07717 12.1428 C 7.99141 12.0571 7.90564 11.8 7.99141 10.8571 C 7.99141 10.1714 8.07717 9.65712 8.16294 9.57141 C 8.2487 9.48569 8.2487 9.31426 8.16294 9.14284 C 8.07717 9.05712 8.16294 8.9714 8.2487 8.88569 C 8.33447 8.79998 8.42024 8.71426 8.33447 8.71426 C 8.2487 8.71426 8.2487 8.54284 8.2487 8.28569 C 8.2487 7.94284 8.33447 7.85712 8.42024 8.02855 C 8.506 8.11426 8.59177 8.19998 8.59177 8.11427 C 8.59177 8.02855 8.506 7.94284 8.42024 7.85712 C 8.33447 7.77141 8.2487 7.68569 8.33447 7.59998 C 8.33447 7.59998 8.42024 7.08569 8.42024 6.57141 C 8.506 5.19998 8.7633 2.97141 9.0206 2.54284 C 9.10636 2.37141 9.19213 2.02855 9.27789 1.6857 C 9.36366 1.0857 9.53519 0.828552 9.70672 0.828552 C 9.87825 0.828552 9.96402 0.914261 9.96402 1.59998 C 9.96402 2.02855 10.0498 2.9714 10.0498 3.74283 C 10.0498 4.51426 10.0498 5.11427 10.1356 5.11427 C 10.1356 5.11427 10.2213 4.59998 10.2213 3.99998 C 10.2213 3.31426 10.3071 2.37141 10.3071 1.85712 L 10.3929 0.914259 H 10.7359 C 11.1647 0.914259 11.3363 1.1714 11.422 1.59998 V 1.94284 L 11.5078 1.59998 C 11.5936 1.08569 11.7651 0.999978 11.8509 1.42855 C 12.1082 2.02855 12.1939 3.65713 12.3655 7.94284 C 12.4512 10.2571 12.4512 11.0286 12.537 11.9714 C 12.6228 12.9143 12.7085 14.5428 12.7943 16.4285 C 12.7943 17.2 12.8801 18.1428 12.8801 18.5714 C 12.9658 19.6 12.9658 20.3714 13.3947 27.9143 C 13.5662 31.4285 13.7377 34.3428 13.8235 34.4286 C 13.995 34.8571 14.0808 33.9143 13.995 32.5428 C 13.9092 30.1428 13.9092 30.0571 13.8235 29.9714 C 13.7377 29.7143 13.652 28.5143 13.5662 25 C 13.5662 24.3143 13.4804 23.1143 13.4804 22.3428 C 13.4804 21.5714 13.3947 20.3714 13.3947 19.6 C 13.3947 18.8285 13.3089 18.2285 13.3089 18.1428 C 13.3089 18.0571 13.2231 17.7143 13.2231 17.2857 C 13.1374 16.6 13.2231 16.5143 13.3947 16.4285 C 13.5662 16.3428 13.652 16.3428 13.652 16.5143 C 13.652 16.6 13.7377 17.5428 13.7377 18.5714 C 13.8235 19.6 13.9093 20.8 13.9093 21.2286 C 13.9093 21.6571 13.995 22.3428 13.995 22.8571 C 13.995 23.3714 14.1665 24.7428 14.2523 25.9428 C 14.3381 27.1428 14.5096 29.1143 14.5096 30.3143 C 14.5954 31.5143 14.6811 32.6285 14.6811 32.8857 L 14.7669 33.3143 L 15.1957 33.0571 C 15.7103 32.7143 15.7961 32.7143 15.7961 33.0571 C 15.7961 33.3143 15.7961 33.3143 16.1392 32.9714 C 16.4822 32.6286 16.9111 32.5428 16.9968 32.7143 C 16.9968 32.8 17.1684 32.8 17.3399 32.6285 C 17.6829 32.4571 18.1975 32.4571 18.1975 32.7143 C 18.1975 32.8 18.2833 32.8857 18.3691 32.8 C 18.8837 32.5428 18.8837 32.5428 18.8837 32.8857 C 18.8837 33.0571 18.9694 33.1428 19.0552 33.1428 C 19.141 33.1428 19.2267 33.2285 19.141 33.3143 C 19.0552 33.4 19.0552 33.6571 19.0552 33.7428 C 19.0552 33.9143 18.9694 34.1714 18.8837 34.3428 C 18.6264 34.9428 18.026 37.6857 17.8545 39.4 C 17.7687 40.0857 17.5972 41.2857 17.5114 42.0571 C 17.3399 43.3428 16.7395 46.5143 16.3965 47.6285 C 15.7103 50.1143 15.2815 51.3143 14.9384 51.3143 C 14.8527 51.3143 14.7669 51.4 14.6811 51.4857 C 14.5096 51.7428 13.995 51.8285 13.7377 51.7428 C 13.4804 51.6571 12.9658 52 13.0516 52.2571 C 13.0516 52.3428 13.0516 52.4286 12.9658 52.4286 C 12.8801 52.4286 12.7085 52.5143 12.537 52.6 C 12.3655 52.6857 12.2797 52.6857 12.1939 52.6 C 12.1082 52.5143 12.1082 52.5143 12.1082 52.5143 C 12.1082 52.6857 11.2505 53.0286 10.7359 53.1143 C 10.3928 53.1143 10.2213 53.1143 9.96402 52.9428 C 9.79249 52.7714 9.53519 52.7714 9.36366 52.7714 C 8.59177 52.9428 7.56258 51.9143 6.19033 49.3428 C 5.93303 48.9143 5.58996 48.2286 5.33267 47.8 C 4.81807 46.9428 4.81807 46.7714 4.9896 46.8571 C 5.07537 46.8571 4.9896 46.7714 4.81807 46.6857 C 4.64654 46.5143 4.56077 46.3428 4.56077 46.2571 C 4.56077 46.1714 4.56077 46.1714 4.56077 46.1714 C 4.56077 46.1714 4.38924 46 4.30348 45.8286 C 4.21771 45.6571 4.13195 45.4857 4.04618 45.4857 C 3.96041 45.4857 3.96041 45.4 3.96041 45.3143 C 3.96041 45.2285 3.87465 45.0571 3.87465 44.9714 C 3.78888 44.8857 2.93122 43.1714 2.50239 42.2286 C 2.41663 41.9714 2.07356 41.2857 1.7305 40.6 C 1.04437 39.1428 0.358248 37.3428 0.272482 36.7428 C 0.186716 35.9714 0.444013 35.0286 0.787077 35.1143 C 0.872842 35.1143 0.958609 35.1143 0.872843 35.0285 C 0.872843 34.8571 0.872842 34.7714 1.21591 34.8571 C 1.38744 34.9428 1.55897 35.2 1.7305 35.6285 C 1.90203 36.0571 2.07356 36.3143 2.07356 36.3143 C 2.07356 36.3143 2.15933 35.8857 2.07356 35.4571 C 2.07356 34.6 2.15933 34.3428 2.58816 34.3428 C 2.84546 34.3428 2.93122 34.4285 3.18852 34.7714 L 3.53158 35.2 V 34.1714 L 4.13194 34.2571 C 4.56077 34.3428 4.73231 34.4286 4.90384 34.5143 C 5.07537 34.6857 5.07537 34.6857 5.16113 34.5143 C 5.33267 34.2571 5.5042 34.4286 5.7615 34.9428 L 5.93303 35.3714 L 5.84726 35.0285 Z M 12.8801 16.1714 C 12.8801 15.9143 12.8801 15.4857 12.7943 15.4 C 12.7943 15.2286 12.7085 14.3714 12.7085 13.4285 C 12.6228 11.9714 12.7085 11.8 12.7943 11.8 C 12.8801 11.8 12.9658 11.9714 12.9658 12.2286 C 13.0516 13.6 13.1374 15.4 13.2231 16 C 13.3089 16.3428 13.2231 16.5143 13.0516 16.6 C 12.9658 16.6857 12.9658 16.6 12.8801 16.1714 Z M 12.7085 11.2 C 12.7085 11.0285 12.6228 10.5143 12.6228 9.99998 C 12.537 9.48569 12.537 8.97141 12.6228 8.79998 C 12.7085 8.62855 12.7085 8.45712 12.6228 8.45712 C 12.537 8.45712 12.537 8.19998 12.537 7.85712 C 12.537 7.51426 12.4512 6.99998 12.4512 6.57141 C 12.4512 6.14284 12.4512 5.79998 12.537 5.71426 C 12.6228 5.62855 12.6228 5.54283 12.537 5.62854 C 12.4512 5.71426 12.3655 5.54283 12.3655 5.19997 C 12.3655 4.94283 12.3655 4.6857 12.4512 4.6857 C 12.537 4.59998 12.537 4.34283 12.4512 4.34283 C 12.3655 4.34283 12.3655 4.25712 12.3655 4.1714 C 12.3655 4.08569 12.3655 3.57141 12.2797 2.97141 C 12.1939 1.42855 12.3655 2.19998 12.6228 4.1714 C 12.7085 5.11426 12.7943 6.5714 12.8801 7.34283 C 12.8801 8.11426 12.9658 8.79998 12.9658 8.79998 C 12.9658 8.8857 13.0516 9.22855 13.0516 9.65713 C 13.0516 10.0857 13.0516 10.6 13.1374 10.9428 C 13.2231 11.3714 13.1374 11.4571 13.0516 11.4571 C 12.7943 11.5428 12.7085 11.4571 12.7085 11.2 Z M 7.81988 9.39998 C 7.81988 9.22855 7.90564 8.8857 7.90564 8.54284 L 7.99141 8.02855 V 8.71426 C 7.99141 9.05712 7.99141 9.48569 7.90564 9.57141 C 7.81988 9.65712 7.81988 9.65712 7.81988 9.39998 Z M 7.90564 7.85712 C 7.90564 7.68569 7.99141 7.51426 7.99141 7.42855 C 8.07717 7.34284 8.07717 7.34283 8.07717 7.59998 C 8.07717 8.02855 7.90564 8.19998 7.90564 7.85712 Z M 7.99141 6.91426 C 7.99141 6.82854 8.07717 6.65713 8.07717 6.65713 C 8.07717 6.65713 8.07717 6.74283 8.07717 6.91426 C 8.07717 6.99997 7.99141 7.1714 7.99141 7.1714 C 7.99141 7.1714 7.99141 7.08569 7.99141 6.91426 Z" stroke-linecap="round"/>
</g>
</svg>